<svg xmlns="http://www.w3.org/2000/svg" viewBox="0 0 256 256" width="256" height="256">
	<style>
		tspan { white-space:pre }
		.shp0 { fill: #ffffff } 
	</style>
	<g id="Layer">
		<path id="Layer" fill-rule="evenodd" class="shp0" d="M183.1 235.2C183.6 237.7 181.7 240 179.2 240L76.8 240C74.3 240 72.4 237.7 72.9 235.2L87.7 161.2C87.9 160.5 88.2 159.8 88.8 159.2L95.9 152.1L92 152.1C89.8 152.1 88 150.3 88 148.1L88 136.1C88 133.9 89.8 132.1 92 132.1L89 132.1C88.4 132.1 87.8 132 87.2 131.7L82 129.1C80.8 128.5 79.9 127.3 79.8 125.9L72.4 51.5C72.2 49.5 73.5 47.7 75.4 47.2L119.5 36.2C119.8 36.1 120.2 36.1 120.5 36.1L135.6 36.1C136 36.1 136.3 36.1 136.6 36.2L180.7 47.2C182.6 47.7 183.9 49.5 183.7 51.5L176.3 125.9C176.2 127.3 175.3 128.5 174.1 129.1L168.9 131.7C168.3 132 167.7 132.1 167.1 132.1L164 132.1C166.2 132.1 168 133.9 168 136.1L168 148.1C168 150.3 166.2 152.1 164 152.1L160.1 152.1L167.2 159.2C167.8 159.7 168.1 160.4 168.3 161.2L183.1 235.2ZM175.3 54L153.9 48.7L146 124L166.1 124L168.5 122.8L175.3 54ZM106 47.7C106 47.8 106 47.8 106 47.8L114 123.8C114 123.9 114 123.9 114 124L142 124C142 123.9 142 123.9 142 123.8L150 47.8C150 47.7 150 47.7 150 47.7L135.1 44L120.9 44L106 47.7ZM110 124L102 48.7L80.6 54L87.5 122.8L89.9 124L110 124ZM164 148L164 136L92 136L92 148L164 148ZM142 160.1L114.7 160C114.7 160.1 114.7 160.1 114.7 160.1L106 232L150 232L142 160.1ZM81.7 232L102 232L110.7 160L99.2 160L95.3 163.9L81.7 232ZM174.2 232L160.6 163.9L156.7 160L146 160L154 231.5C154 231.7 154 231.8 154 232L174.2 232Z" />
		<path id="Layer" class="shp0" d="M136 32L138 19.9L128 16L118 20L119.9 32L136 32Z" />
		<path id="Layer" class="shp0" d="M45.2 66.1C46.2 64.9 48 64.8 50 65.3L70.9 76.1L68.5 51.8L68.5 51.8C68.2 50.2 67 49 65.5 49L57 49C56.5 49 55.8 49.4 55.3 49.2L46.5 45.7C45 45.1 43.4 45.5 42.2 46.6L18 70.2C17 71.4 17 73.4 17.1 74.7L46.9 141.5C47.5 142.9 49 144 51 144L65 144C66.9 143.8 69.2 142.3 69 140L69 135C68.9 133.4 67 131.7 65.5 131.2L58.8 129C57.2 128.5 56.1 126.9 56.1 125.2L56.1 117.4C56.1 116.6 55.9 115.8 55.4 115.2L48.6 105C48.2 104.4 47.9 103.6 47.9 102.9L48 89C48 88.4 47.6 87.7 47.3 87L41 74C40.7 72.2 41.2 70.9 42 70L45.2 66.1Z" />
		<path id="Layer" class="shp0" d="M213.6 58.3L200.2 54.1C199.8 54 199.4 53.9 199 53.9L191 53.9C188.9 53.9 187.2 55.5 187 57.5L183.3 94.7L206.8 65.2C207.3 64.3 208.1 63.7 209.1 63.4L213.6 62C215.5 61.6 215.5 58.9 213.6 58.3Z" />
	</g>
</svg>